PathFileType	4	(X/Y/Z)	66_2_89_p0_0-270.trc
DataRate	CameraRate	NumFrames	NumMarkers	Units	OrigDataRate	OrigDataStartFrame	OrigNumFrames
59.0	59.0	7	27	m	59.0	101	271
Frame#	Time	RHip			RKnee			RAnkle			RBigToe			RSmallToe			RHeel			LHip			LKnee			LAnkle			LBigToe			LSmallToe			LHeel			Neck			Head			Nose			RShoulder			RElbow			RWrist			RThumb			RIndex			RPinky			LShoulder			LElbow			LWrist			LThumb			LIndex			LPinky			
		X1	Y1	Z1	X2	Y2	Z2	X3	Y3	Z3	X4	Y4	Z4	X5	Y5	Z5	X6	Y6	Z6	X7	Y7	Z7	X8	Y8	Z8	X9	Y9	Z9	X10	Y10	Z10	X11	Y11	Z11	X12	Y12	Z12	X13	Y13	Z13	X14	Y14	Z14	X15	Y15	Z15	X16	Y16	Z16	X17	Y17	Z17	X18	Y18	Z18	X19	Y19	Z19	X20	Y20	Z20	X21	Y21	Z21	X22	Y22	Z22	X23	Y23	Z23	X24	Y24	Z24	X25	Y25	Z25	X26	Y26	Z26	X27	Y27	Z27	
101	1.7118644067796611	0.5488919191003088	0.9054330207433575	0.8097967227952674	0.5443499025074832	1.0265905254181829	1.2424707449771528	0.523217899185761	1.1387807984991947	1.6320978206521357	0.4808651144302699	0.8838206441037911	1.649065870195939	0.5519584749548393	0.9231362601706796	1.6452067954862077	0.5008332331321338	1.2465179762033027	1.6868473863003302	0.33895067654879657	0.944162021962968	0.8110007930500626	0.33546219933760063	1.0387028193752474	1.232187056343338	0.3322606916498979	1.158598270200784	1.6093825884935336	0.3260679735945381	0.9129087527721264	1.6336925582573858	0.27134055427680903	1.005585399896543	1.6405652339680354	0.36118323868206886	1.2413679845648298	1.683447651072191	0.4455487281946366	0.8035779946107179	0.27485373103122984	0.46783340146777086	0.6833153112161491	0.04322987798715478	0.4655326623714432	0.6627133608433339	0.17860476942123796	0.5857071069744457	0.7606101000167488	0.3641117304016658	0.6400693584178243	0.8502354907685279	0.6159475322162428	0.6094524953490648	0.8343272337957692	0.8693788807421392	0.5416088939987109	0.7839328914592696	0.965698174675937	0.5545032254388814	0.7928457333064225	0.990951889261418	0.5964817894085734	0.8593759828342517	0.9929266154532103	0.3001034494146777	0.8588885947582331	0.3561780663010523	0.24957861667520068	0.9327609946042462	0.609983247127557	0.23482958935627934	0.8646472231189494	0.8409698809082485	0.28518528388393605	0.8420997027171533	0.9412725351907342	0.2652113661951049	0.8461052028672253	0.9622050554312876	0.2178094559150392	0.9155060788723365	0.9756695087209319
102	1.728813559322034	0.5486487786706863	0.9050932528478448	0.8096211422600389	0.5443623126715117	1.0267000247229372	1.2426233619119469	0.5232134541567973	1.1391030637554145	1.6321542189670808	0.4862471438528425	0.8995422180187812	1.6550885529285273	0.5523046185124039	0.9242181626484232	1.645432842008435	0.5022772179522732	1.2450913667403234	1.6814240072212765	0.3388829584169585	0.9439409353312517	0.8108345114444618	0.335437019207622	1.0388767948006417	1.2322388333752055	0.33814651815329894	1.14419280334898	1.6091485948331545	0.3262387670520609	0.9125311471390591	1.6336865935822233	0.2763590397425426	0.9890354393786436	1.6341770438597698	0.36112022658631643	1.239961674706861	1.6828400853749392	0.44542044796332975	0.8039651454978451	0.2747724395484605	0.47196836155324823	0.684609169697468	0.04328304107175779	0.47200507608570264	0.6605583120799361	0.17892906820026352	0.5856628411489813	0.7607248827218894	0.36408661983478746	0.6345419121531575	0.8342596532273324	0.6113965363490278	0.6085182098608365	0.8319721505212825	0.8650198077923626	0.5412236324811969	0.7835877348541492	0.9656199585589312	0.5497890334005311	0.7910033500540967	0.9907145433952824	0.5963491974255916	0.859039308887222	0.9932026039328522	0.30017414236958084	0.8588622803759667	0.35614991233152227	0.2538612339161305	0.9166930980700806	0.60900615197737	0.23939088679515821	0.8503525013653902	0.8393093605694592	0.28435439157219067	0.8423850973611936	0.9447577797999299	0.2613434672415832	0.8450388750331842	0.962412191778895	0.22269322772464414	0.9007236063645556	0.9738639854060058
103	1.7457627118644068	0.5485906230833101	0.9043076071960283	0.809426537273657	0.544255246268024	1.0265337709651479	1.2427535313763864	0.5185378747013266	1.122244993347176	1.6263331354101598	0.4805232901806183	0.884357092052333	1.6491975472368363	0.5516571201436469	0.9236732732791207	1.645083392564608	0.5024707815745176	1.2502400475373998	1.6934270699499117	0.34325353786791446	0.9283346535916622	0.8090810453176429	0.3361589053961909	1.0413252480877562	1.2373096350004005	0.3380738099146128	1.1439831799763944	1.6089530591558903	0.32614703868537187	0.9120265097893179	1.6332484932960791	0.27628649247564074	0.9887521850482949	1.633912686854622	0.36092618801454746	1.2400485850265794	1.6828401204484045	0.44560252837194614	0.8042191011819726	0.2746959881544146	0.47250169930310737	0.6844169852703353	0.043290837480425184	0.47548284083188713	0.6716350550561847	0.17795613773053473	0.585714186295445	0.7606668673216236	0.3639501992543048	0.634922974802427	0.8338964125902217	0.611167653873367	0.6041984805999069	0.831040693988615	0.8648513496975818	0.5367444994488118	0.7840543465717645	0.9654071326656243	0.5446066632813483	0.7784534303209295	0.9853376811877826	0.5965360137791852	0.8586460389061512	0.993014423609448	0.3052283309560031	0.8600123576953873	0.35272538819018284	0.253365753176138	0.9162611817181834	0.6126195454354494	0.23940744298237213	0.8501509958671934	0.8394772086782022	0.28481147257686773	0.8417250257162151	0.9447962532135729	0.2622707615114614	0.8477133180000652	0.9675881835975757	0.23182740628784781	0.8709380838439698	0.9690091032668183
104	1.7627118644067796	0.5485720631226033	0.9044779159595023	0.8094045864709344	0.5443338682041664	1.0265667254541193	1.2426882038173694	0.523160861276475	1.138784831042377	1.6320901876480245	0.48155006383617405	0.8842832928183806	1.6493446482636909	0.5512983971953406	0.9244424193695796	1.6504193389650723	0.5014872196435741	1.2465885944611095	1.6871436402970679	0.33883488923831456	0.9433919476569916	0.8108527606221148	0.33616832383203776	1.0417058060772824	1.2374315707052448	0.33811229394691833	1.143811284026631	1.6089338378721392	0.32617299798394817	0.9119519322221661	1.6333647236838724	0.27627116214755193	0.9885383447412199	1.6338658655897167	0.36188717889452426	1.2397029097053174	1.6825687390610784	0.4454274400275968	0.8040954766405695	0.2746741218851589	0.4756211225806532	0.6712709005180734	0.04154288392728108	0.47981253773646976	0.6727007334994388	0.1777830309384266	0.585908743235567	0.7602574863057949	0.360550232663787	0.6340177644117968	0.8320698216066241	0.610726351910677	0.6039570639010634	0.8314987219602297	0.8613674713441204	0.5365900437170098	0.7840473063681679	0.9653787129570013	0.5409834076123509	0.7780404364846493	0.985142640724909	0.5970991662209179	0.8575628590628788	0.9891979425927929	0.3051770023758279	0.8601778439692658	0.3526246176947614	0.2540243718407041	0.9155312347385427	0.6090740598711532	0.2394296399515521	0.8499097478313037	0.8397120909070334	0.28960406609273537	0.8394418702509249	0.9481980485091769	0.26634024172251547	0.8488369778843317	0.9678135465603284	0.23177709945250097	0.8710013221435587	0.9690762545321562
105	1.7796610169491525	0.5488794096093926	0.9042725168294573	0.8093537118977848	0.5443324297592581	1.0267209364589265	1.2428909770510554	0.5232019818698881	1.138695587651973	1.6320282611834878	0.48706387735618945	0.8990270399502588	1.654993398879409	0.556846202494653	0.9250631425532435	1.646120586316327	0.5018435018161184	1.2469231731251218	1.687432315550896	0.34748798823842253	0.9288430318686945	0.8091235968195757	0.3355149961470737	1.0385520885507713	1.2321925308299977	0.3383614094528918	1.1437884708333985	1.6089468738074169	0.32636889350833564	0.9117196390670462	1.6332522183830083	0.27654531860261944	0.988504908818854	1.6338504402535725	0.3620150872966201	1.2398670997756018	1.6826468793760823	0.4454930868809481	0.8041353539397101	0.2746531913180339	0.47557916199399647	0.6714952549330666	0.04138989792171344	0.47986840058343017	0.6722158467883184	0.17799138391390576	0.5855633688395222	0.7609494013497564	0.364017283877212	0.6341689961553553	0.8316759570631501	0.6106841360296535	0.5997578107481333	0.8307148585449299	0.8613420231646483	0.5314717052651341	0.7817772839167731	0.9611858388910685	0.5368811040857576	0.7772930783667138	0.9852013848215155	0.5922642487245264	0.8460542225195528	0.991258477894899	0.305158031538739	0.860200990143686	0.3526468700026996	0.2495750842616199	0.9130513921953296	0.608907646999604	0.23951390728251415	0.8497370018448602	0.839730813416371	0.29467152205636127	0.8250530169097617	0.9458490814285665	0.2667197852975267	0.8483256914013382	0.9676946424189524	0.23343853526877525	0.842859171372219	0.9640707699065899
106	1.7966101694915255	0.5487048644748779	0.9039340685407149	0.8092470353309791	0.5443822050793418	1.0267208181825735	1.24280932716333	0.522221170911663	1.1360363215547815	1.6264947986954406	0.4854342785586797	0.8981272243566204	1.6544931084654133	0.5555571028470802	0.9348653909788641	1.6447323388086008	0.5010406978276669	1.2419224388774468	1.6751224762508605	0.34339133741068045	0.9279820235329779	0.8089753305016135	0.3363278088830764	1.0371199652427494	1.2278612497832946	0.3323021009923096	1.156675390630127	1.6127005217785617	0.33012620333156656	0.926463621754434	1.643897225359533	0.2762728869240845	0.9895889231375482	1.6346113739692425	0.3615102538431071	1.235967117364259	1.6718821559118873	0.4455125402563971	0.8041462915053015	0.27472328946506724	0.47973018275395857	0.6850379188552103	0.04673407975094559	0.47993199912842766	0.6717902287948966	0.17820952206996193	0.5855435629867791	0.7606709998900657	0.3674418514006908	0.6334726916123296	0.8306845175488229	0.6104645278117722	0.5997684083241269	0.8306784014334978	0.8613032289312014	0.5313411638338041	0.7817568334868713	0.9608743849658322	0.536078141622933	0.7750512244332274	0.980648023238734	0.59298027800322	0.8446049465909062	0.9870870993214532	0.3047250103333557	0.8579931086914369	0.3489973047821423	0.24959176690621615	0.9125203816852626	0.6089304973585065	0.23980514033906095	0.8487608344395758	0.8432385067258813	0.3000581344087473	0.8093228892715583	0.9400226642084801	0.26727563713505603	0.8469127826618622	0.9671836120918484	0.2361194453123657	0.8560163438006361	0.9658391747996572
107	1.8135593220338984	0.5565231533579401	0.9015170674565363	0.8088141080897704	0.5442972444679772	1.0268480327337883	1.2428892610724849	0.5221227998035841	1.1363181308294312	1.6264843891094336	0.4849808150953737	0.8986405457949516	1.654621599299019	0.5535700178300084	0.9216163305739019	1.639633461945287	0.49966703293168296	1.2437832760700622	1.680757971649056	0.3435237710168261	0.9280732642955773	0.809068400791532	0.335417692356035	1.0386334628693248	1.2321509636211876	0.3364635591372418	1.1612157749870833	1.610360811420386	0.32649254995906163	0.9122702899545834	1.6382540703251574	0.27609525579253674	0.9899695730708555	1.6348126319553844	0.3615755034025853	1.2372010960374091	1.6724578854992134	0.44552487578663375	0.8042564790739851	0.274709958095659	0.48356327056034515	0.686621721747097	0.04968944630551919	0.4799617275408427	0.6716960179557557	0.17826903391405186	0.5858360350083609	0.760076560181081	0.36387146246995494	0.6337519275252753	0.8309154038722574	0.6105130766173017	0.599715117970584	0.8305012611884333	0.8612718817204286	0.531367970327685	0.781879183898726	0.9606742772914497	0.5362611820569914	0.7752352051254295	0.9805505389715741	0.5929374825015151	0.8445635944658344	0.9870422319597484	0.3047566955873882	0.8581983315275394	0.3490421843242815	0.2499690010888892	0.9123426613993776	0.6090044185597788	0.24446190220442843	0.8351523385743527	0.8416103240644301	0.3037344393851533	0.7978461232209517	0.937275238831204	0.27586904416885655	0.8332362383526268	0.9645739822057197	0.23607391600646066	0.8562039077186059	0.9653854333702399
